<mxfile host="Electron" agent="Mozilla/5.0 (Macintosh; Intel Mac OS X 10_15_7) AppleWebKit/537.36 (KHTML, like Gecko) draw.io/26.0.15 Chrome/132.0.6834.196 Electron/34.2.0 Safari/537.36" version="26.0.15">
  <diagram name="Sample2" id="HxbfsBZSs5fnSKQwJCpc">
    <mxGraphModel dx="1340" dy="763" grid="1" gridSize="10" guides="1" tooltips="1" connect="1" arrows="1" fold="1" page="1" pageScale="1" pageWidth="1100" pageHeight="850" math="0" shadow="0">
      <root>
        <mxCell id="0" />
        <mxCell id="1" parent="0" />
        <mxCell id="5z5hGNtQoGIRelViBkcS-1" style="edgeStyle=orthogonalEdgeStyle;rounded=1;orthogonalLoop=1;jettySize=auto;html=1;exitX=1;exitY=0.5;exitDx=0;exitDy=0;exitPerimeter=0;strokeWidth=2;curved=0;entryX=0;entryY=0.5;entryDx=0;entryDy=0;entryPerimeter=0;" edge="1" parent="1" source="5z5hGNtQoGIRelViBkcS-2" target="5z5hGNtQoGIRelViBkcS-4">
          <mxGeometry relative="1" as="geometry">
            <mxPoint x="143.25" y="110" as="targetPoint" />
          </mxGeometry>
        </mxCell>
        <mxCell id="5z5hGNtQoGIRelViBkcS-2" value="tick" style="rhombus;whiteSpace=wrap;html=1;rounded=1;fontStyle=1;glass=0;sketch=0;fontSize=12;points=[[0,0.5,0,0,0],[0.5,0,0,0,0],[0.5,1,0,0,0],[1,0.5,0,0,0]];shadow=1;fontFamily=Helvetica;fontColor=default;" vertex="1" parent="1">
          <mxGeometry x="40" y="90" width="40" height="40" as="geometry" />
        </mxCell>
        <mxCell id="5z5hGNtQoGIRelViBkcS-3" value="Count" style="rounded=1;whiteSpace=wrap;html=1;container=1;recursiveResize=0;verticalAlign=top;arcSize=6;fontStyle=1;autosize=0;points=[];absoluteArcSize=1;shadow=1;strokeColor=#6c8ebf;fillColor=#dae8fc;fontFamily=Helvetica;fontSize=11;gradientColor=#0050EF;fontColor=default;" vertex="1" parent="1">
          <mxGeometry x="180" y="70" width="90" height="100" as="geometry">
            <mxRectangle x="-98" y="-1230" width="99" height="26" as="alternateBounds" />
          </mxGeometry>
        </mxCell>
        <mxCell id="5z5hGNtQoGIRelViBkcS-4" value="adv" style="rounded=1;whiteSpace=wrap;html=1;sketch=0;points=[[0,0.5,0,0,0],[1,0.5,0,0,0]];arcSize=50;fontFamily=Helvetica;fontSize=11;fontColor=default;" vertex="1" parent="5z5hGNtQoGIRelViBkcS-3">
          <mxGeometry x="-16.75" y="27.5" width="36.75" height="25" as="geometry" />
        </mxCell>
        <mxCell id="5z5hGNtQoGIRelViBkcS-5" value="" style="rounded=1;whiteSpace=wrap;html=1;sketch=0;points=[[0,0.5,0,0,0],[1,0.5,0,0,0]];fillColor=#1ba1e2;fontColor=#ffffff;strokeColor=#006EAF;arcSize=50;fontFamily=Helvetica;fontSize=11;" vertex="1" parent="5z5hGNtQoGIRelViBkcS-3">
          <mxGeometry x="70" y="27.5" width="36" height="25" as="geometry" />
        </mxCell>
        <mxCell id="5z5hGNtQoGIRelViBkcS-6" value="rev" style="rounded=1;whiteSpace=wrap;html=1;sketch=0;points=[[0,0.5,0,0,0],[1,0.5,0,0,0]];arcSize=50;fontFamily=Helvetica;fontSize=11;fontColor=default;" vertex="1" parent="5z5hGNtQoGIRelViBkcS-3">
          <mxGeometry x="-16.75" y="60" width="36.75" height="25" as="geometry" />
        </mxCell>
        <mxCell id="5z5hGNtQoGIRelViBkcS-7" value="Reverser" style="rounded=1;whiteSpace=wrap;html=1;container=1;recursiveResize=0;verticalAlign=top;arcSize=6;fontStyle=1;autosize=0;points=[];absoluteArcSize=1;shadow=1;strokeColor=#6c8ebf;fillColor=#dae8fc;fontFamily=Helvetica;fontSize=11;gradientColor=#0050EF;fontColor=default;" vertex="1" parent="1">
          <mxGeometry x="310" y="250" width="100" height="90" as="geometry">
            <mxRectangle x="-98" y="-1230" width="99" height="26" as="alternateBounds" />
          </mxGeometry>
        </mxCell>
        <mxCell id="5z5hGNtQoGIRelViBkcS-8" value="J" style="rounded=1;whiteSpace=wrap;html=1;sketch=0;points=[[0,0.5,0,0,0],[1,0.5,0,0,0]];arcSize=50;fontFamily=Helvetica;fontSize=11;fontColor=default;" vertex="1" parent="5z5hGNtQoGIRelViBkcS-7">
          <mxGeometry x="70" y="27.5" width="36.75" height="25" as="geometry" />
        </mxCell>
        <mxCell id="5z5hGNtQoGIRelViBkcS-9" value="" style="rounded=1;whiteSpace=wrap;html=1;sketch=0;points=[[0,0.5,0,0,0],[1,0.5,0,0,0]];fillColor=#1ba1e2;fontColor=#ffffff;strokeColor=#006EAF;arcSize=50;fontFamily=Helvetica;fontSize=11;" vertex="1" parent="5z5hGNtQoGIRelViBkcS-7">
          <mxGeometry x="-10" y="27.5" width="36" height="25" as="geometry" />
        </mxCell>
        <mxCell id="5z5hGNtQoGIRelViBkcS-10" value="K" style="rounded=1;whiteSpace=wrap;html=1;sketch=0;points=[[0,0.5,0,0,0],[1,0.5,0,0,0]];arcSize=50;fontFamily=Helvetica;fontSize=11;fontColor=default;" vertex="1" parent="5z5hGNtQoGIRelViBkcS-7">
          <mxGeometry x="70" y="55" width="36.75" height="25" as="geometry" />
        </mxCell>
        <mxCell id="5z5hGNtQoGIRelViBkcS-11" style="edgeStyle=orthogonalEdgeStyle;rounded=1;orthogonalLoop=1;jettySize=auto;html=1;exitX=0;exitY=0.5;exitDx=0;exitDy=0;exitPerimeter=0;entryX=0;entryY=0.5;entryDx=0;entryDy=0;entryPerimeter=0;curved=0;strokeWidth=2;" edge="1" parent="1" source="5z5hGNtQoGIRelViBkcS-9" target="5z5hGNtQoGIRelViBkcS-6">
          <mxGeometry relative="1" as="geometry">
            <Array as="points">
              <mxPoint x="130" y="290" />
              <mxPoint x="130" y="143" />
            </Array>
          </mxGeometry>
        </mxCell>
        <mxCell id="5z5hGNtQoGIRelViBkcS-12" value="Decode" style="rounded=1;whiteSpace=wrap;html=1;container=1;recursiveResize=0;verticalAlign=top;arcSize=6;fontStyle=1;autosize=0;points=[];absoluteArcSize=1;shadow=1;strokeColor=#6c8ebf;fillColor=#dae8fc;fontFamily=Helvetica;fontSize=11;gradientColor=#0050EF;fontColor=default;" vertex="1" parent="1">
          <mxGeometry x="530" y="70" width="480" height="127.5" as="geometry">
            <mxRectangle x="-98" y="-1230" width="99" height="26" as="alternateBounds" />
          </mxGeometry>
        </mxCell>
        <mxCell id="5z5hGNtQoGIRelViBkcS-13" value="N" style="rounded=1;whiteSpace=wrap;html=1;sketch=0;points=[[0,0.5,0,0,0],[1,0.5,0,0,0]];arcSize=50;fontFamily=Helvetica;fontSize=11;fontColor=default;" vertex="1" parent="5z5hGNtQoGIRelViBkcS-12">
          <mxGeometry x="-16.75" y="27.5" width="36.75" height="25" as="geometry" />
        </mxCell>
        <mxCell id="5z5hGNtQoGIRelViBkcS-15" value="9" style="rounded=1;whiteSpace=wrap;html=1;sketch=0;points=[[0,0.5,0,0,0],[1,0.5,0,0,0]];fillColor=#1ba1e2;fontColor=#ffffff;strokeColor=#006EAF;arcSize=50;fontFamily=Helvetica;fontSize=11;" vertex="1" parent="5z5hGNtQoGIRelViBkcS-12">
          <mxGeometry x="430" y="100" width="36" height="25" as="geometry" />
        </mxCell>
        <mxCell id="5z5hGNtQoGIRelViBkcS-22" value="0" style="rounded=1;whiteSpace=wrap;html=1;sketch=0;points=[[0,0.5,0,0,0],[1,0.5,0,0,0]];fillColor=#1ba1e2;fontColor=#ffffff;strokeColor=#006EAF;arcSize=50;fontFamily=Helvetica;fontSize=11;" vertex="1" parent="5z5hGNtQoGIRelViBkcS-12">
          <mxGeometry x="27" y="110" width="36" height="25" as="geometry" />
        </mxCell>
        <mxCell id="5z5hGNtQoGIRelViBkcS-101" value="1" style="rounded=1;whiteSpace=wrap;html=1;sketch=0;points=[[0,0.5,0,0,0],[1,0.5,0,0,0]];fillColor=#1ba1e2;fontColor=#ffffff;strokeColor=#006EAF;arcSize=50;fontFamily=Helvetica;fontSize=11;" vertex="1" parent="5z5hGNtQoGIRelViBkcS-12">
          <mxGeometry x="70" y="110" width="36" height="25" as="geometry" />
        </mxCell>
        <mxCell id="5z5hGNtQoGIRelViBkcS-25" style="edgeStyle=orthogonalEdgeStyle;shape=connector;curved=0;rounded=1;orthogonalLoop=1;jettySize=auto;html=1;exitX=1;exitY=0.5;exitDx=0;exitDy=0;exitPerimeter=0;entryX=0;entryY=0.5;entryDx=0;entryDy=0;entryPerimeter=0;strokeColor=default;strokeWidth=2;align=center;verticalAlign=middle;fontFamily=Helvetica;fontSize=11;fontColor=default;labelBackgroundColor=default;endArrow=classic;" edge="1" parent="1" source="5z5hGNtQoGIRelViBkcS-73" target="5z5hGNtQoGIRelViBkcS-13">
          <mxGeometry relative="1" as="geometry" />
        </mxCell>
        <mxCell id="5z5hGNtQoGIRelViBkcS-26" style="edgeStyle=orthogonalEdgeStyle;shape=connector;curved=0;rounded=1;orthogonalLoop=1;jettySize=auto;html=1;entryX=1;entryY=0.5;entryDx=0;entryDy=0;entryPerimeter=0;strokeColor=default;strokeWidth=2;align=center;verticalAlign=middle;fontFamily=Helvetica;fontSize=11;fontColor=default;labelBackgroundColor=default;endArrow=classic;exitX=0.528;exitY=0.92;exitDx=0;exitDy=0;exitPerimeter=0;" edge="1" parent="1" source="5z5hGNtQoGIRelViBkcS-22" target="5z5hGNtQoGIRelViBkcS-8">
          <mxGeometry relative="1" as="geometry">
            <Array as="points">
              <mxPoint x="576" y="290" />
            </Array>
          </mxGeometry>
        </mxCell>
        <mxCell id="5z5hGNtQoGIRelViBkcS-27" style="edgeStyle=orthogonalEdgeStyle;shape=connector;curved=0;rounded=1;orthogonalLoop=1;jettySize=auto;html=1;entryX=1;entryY=0.5;entryDx=0;entryDy=0;entryPerimeter=0;strokeColor=default;strokeWidth=2;align=center;verticalAlign=middle;fontFamily=Helvetica;fontSize=11;fontColor=default;labelBackgroundColor=default;endArrow=classic;exitX=0.528;exitY=1.04;exitDx=0;exitDy=0;exitPerimeter=0;" edge="1" parent="1" source="5z5hGNtQoGIRelViBkcS-15" target="5z5hGNtQoGIRelViBkcS-10">
          <mxGeometry relative="1" as="geometry" />
        </mxCell>
        <mxCell id="5z5hGNtQoGIRelViBkcS-28" value="@" style="rounded=1;sketch=0;container=1;recursiveResize=0;verticalAlign=top;arcSize=6;fontStyle=0;autosize=0;points=[];absoluteArcSize=1;shadow=0;strokeColor=#9673a6;fillColor=#e1d5e7;fontFamily=Helvetica;fontSize=11;dashed=1;opacity=30;align=right;labelBackgroundColor=none;" vertex="1" parent="1">
          <mxGeometry x="1050" y="370" width="40" height="62.5" as="geometry">
            <mxRectangle x="-98" y="-1230" width="99" height="26" as="alternateBounds" />
          </mxGeometry>
        </mxCell>
        <mxCell id="5z5hGNtQoGIRelViBkcS-29" value="" style="rounded=1;whiteSpace=wrap;html=1;sketch=0;points=[[0,0.5,0,0,0],[1,0.5,0,0,0]];arcSize=50;fontFamily=Helvetica;fontSize=11;fontColor=default;dashed=1;textOpacity=50;opacity=30;fontStyle=0;labelBackgroundColor=none;" vertex="1" parent="5z5hGNtQoGIRelViBkcS-28">
          <mxGeometry x="-12" y="12.5" width="39.25" height="25" as="geometry" />
        </mxCell>
        <mxCell id="5z5hGNtQoGIRelViBkcS-30" value="reset" style="rounded=1;whiteSpace=wrap;html=1;sketch=0;points=[[0,0.5,0,0,0],[1,0.5,0,0,0]];arcSize=50;fontFamily=Helvetica;fontSize=11;fontColor=default;dashed=1;textOpacity=50;opacity=30;fontStyle=0;labelBackgroundColor=none;" vertex="1" parent="5z5hGNtQoGIRelViBkcS-28">
          <mxGeometry x="0.75" y="50" width="39.25" height="25" as="geometry" />
        </mxCell>
        <mxCell id="5z5hGNtQoGIRelViBkcS-31" style="edgeStyle=orthogonalEdgeStyle;shape=connector;curved=0;rounded=1;orthogonalLoop=1;jettySize=auto;html=1;entryX=0;entryY=0.5;entryDx=0;entryDy=0;entryPerimeter=0;strokeColor=default;strokeWidth=1;align=center;verticalAlign=middle;fontFamily=Helvetica;fontSize=11;fontColor=default;labelBackgroundColor=default;endArrow=classic;exitX=0.528;exitY=0.88;exitDx=0;exitDy=0;exitPerimeter=0;dashed=1;dashPattern=1 4;" edge="1" parent="1" source="5z5hGNtQoGIRelViBkcS-15" target="5z5hGNtQoGIRelViBkcS-29">
          <mxGeometry relative="1" as="geometry">
            <Array as="points">
              <mxPoint x="979" y="395" />
            </Array>
          </mxGeometry>
        </mxCell>
        <mxCell id="5z5hGNtQoGIRelViBkcS-44" value="@" style="rounded=1;sketch=0;container=1;recursiveResize=0;verticalAlign=top;arcSize=6;fontStyle=0;autosize=0;points=[];absoluteArcSize=1;shadow=0;strokeColor=#9673a6;fillColor=#e1d5e7;fontFamily=Helvetica;fontSize=11;dashed=1;opacity=30;align=right;labelBackgroundColor=none;" vertex="1" parent="1">
          <mxGeometry x="490" y="370" width="40" height="62.5" as="geometry">
            <mxRectangle x="-98" y="-1230" width="99" height="26" as="alternateBounds" />
          </mxGeometry>
        </mxCell>
        <mxCell id="5z5hGNtQoGIRelViBkcS-45" value="" style="rounded=1;whiteSpace=wrap;html=1;sketch=0;points=[[0,0.5,0,0,0],[1,0.5,0,0,0]];arcSize=50;fontFamily=Helvetica;fontSize=11;fontColor=default;dashed=1;textOpacity=50;opacity=30;fontStyle=0;labelBackgroundColor=none;" vertex="1" parent="5z5hGNtQoGIRelViBkcS-44">
          <mxGeometry x="10.75" y="13" width="39.25" height="25" as="geometry" />
        </mxCell>
        <mxCell id="5z5hGNtQoGIRelViBkcS-46" value="reset" style="rounded=1;whiteSpace=wrap;html=1;sketch=0;points=[[0,0.5,0,0,0],[1,0.5,0,0,0]];arcSize=50;fontFamily=Helvetica;fontSize=11;fontColor=default;dashed=1;textOpacity=50;opacity=30;fontStyle=0;labelBackgroundColor=none;" vertex="1" parent="5z5hGNtQoGIRelViBkcS-44">
          <mxGeometry y="50" width="39.25" height="25" as="geometry" />
        </mxCell>
        <mxCell id="5z5hGNtQoGIRelViBkcS-63" style="edgeStyle=orthogonalEdgeStyle;shape=connector;curved=0;rounded=1;orthogonalLoop=1;jettySize=auto;html=1;entryX=1;entryY=0.5;entryDx=0;entryDy=0;entryPerimeter=0;dashed=1;dashPattern=1 4;strokeColor=default;strokeWidth=1;align=center;verticalAlign=middle;fontFamily=Helvetica;fontSize=11;fontColor=default;labelBackgroundColor=default;endArrow=classic;" edge="1" parent="1" source="5z5hGNtQoGIRelViBkcS-22" target="5z5hGNtQoGIRelViBkcS-45">
          <mxGeometry relative="1" as="geometry">
            <Array as="points">
              <mxPoint x="575" y="396" />
            </Array>
          </mxGeometry>
        </mxCell>
        <mxCell id="5z5hGNtQoGIRelViBkcS-69" style="edgeStyle=orthogonalEdgeStyle;shape=connector;curved=0;rounded=1;orthogonalLoop=1;jettySize=auto;html=1;exitX=1;exitY=0.5;exitDx=0;exitDy=0;exitPerimeter=0;entryX=0;entryY=0.5;entryDx=0;entryDy=0;entryPerimeter=0;strokeColor=default;align=center;verticalAlign=middle;fontFamily=Helvetica;fontSize=11;fontColor=default;labelBackgroundColor=default;endArrow=classic;strokeWidth=2;" edge="1" parent="1" source="5z5hGNtQoGIRelViBkcS-5" target="5z5hGNtQoGIRelViBkcS-72">
          <mxGeometry relative="1" as="geometry" />
        </mxCell>
        <mxCell id="5z5hGNtQoGIRelViBkcS-70" style="edgeStyle=orthogonalEdgeStyle;shape=connector;curved=0;rounded=1;orthogonalLoop=1;jettySize=auto;html=1;exitX=1;exitY=0.5;exitDx=0;exitDy=0;exitPerimeter=0;entryX=0;entryY=0.5;entryDx=0;entryDy=0;entryPerimeter=0;strokeColor=default;align=center;verticalAlign=middle;fontFamily=Helvetica;fontSize=11;fontColor=default;labelBackgroundColor=default;endArrow=classic;strokeWidth=2;" edge="1" parent="1" source="5z5hGNtQoGIRelViBkcS-5" target="5z5hGNtQoGIRelViBkcS-74">
          <mxGeometry relative="1" as="geometry" />
        </mxCell>
        <mxCell id="5z5hGNtQoGIRelViBkcS-71" value="1then2" style="rounded=1;whiteSpace=wrap;html=1;container=1;recursiveResize=0;verticalAlign=top;arcSize=6;fontStyle=1;autosize=0;points=[];absoluteArcSize=1;shadow=1;strokeColor=#6c8ebf;fillColor=#dae8fc;fontFamily=Helvetica;fontSize=11;gradientColor=#0050EF;fontColor=default;" vertex="1" parent="1">
          <mxGeometry x="360" y="70" width="90" height="100" as="geometry">
            <mxRectangle x="-98" y="-1230" width="99" height="26" as="alternateBounds" />
          </mxGeometry>
        </mxCell>
        <mxCell id="5z5hGNtQoGIRelViBkcS-72" value="1" style="rounded=1;whiteSpace=wrap;html=1;sketch=0;points=[[0,0.5,0,0,0],[1,0.5,0,0,0]];arcSize=50;fontFamily=Helvetica;fontSize=11;fontColor=default;" vertex="1" parent="5z5hGNtQoGIRelViBkcS-71">
          <mxGeometry x="-16.75" y="27.5" width="36.75" height="25" as="geometry" />
        </mxCell>
        <mxCell id="5z5hGNtQoGIRelViBkcS-73" value="2" style="rounded=1;whiteSpace=wrap;html=1;sketch=0;points=[[0,0.5,0,0,0],[1,0.5,0,0,0]];fillColor=#1ba1e2;fontColor=#ffffff;strokeColor=#006EAF;arcSize=50;fontFamily=Helvetica;fontSize=11;" vertex="1" parent="5z5hGNtQoGIRelViBkcS-71">
          <mxGeometry x="70" y="27.5" width="36" height="25" as="geometry" />
        </mxCell>
        <mxCell id="5z5hGNtQoGIRelViBkcS-74" value="2" style="rounded=1;whiteSpace=wrap;html=1;sketch=0;points=[[0,0.5,0,0,0],[1,0.5,0,0,0]];arcSize=50;fontFamily=Helvetica;fontSize=11;fontColor=default;" vertex="1" parent="5z5hGNtQoGIRelViBkcS-71">
          <mxGeometry x="-16.75" y="60" width="36.75" height="25" as="geometry" />
        </mxCell>
        <mxCell id="5z5hGNtQoGIRelViBkcS-75" value="1" style="rounded=1;whiteSpace=wrap;html=1;sketch=0;points=[[0,0.5,0,0,0],[1,0.5,0,0,0]];fillColor=#1ba1e2;fontColor=#ffffff;strokeColor=#006EAF;arcSize=50;fontFamily=Helvetica;fontSize=11;" vertex="1" parent="5z5hGNtQoGIRelViBkcS-71">
          <mxGeometry x="70" y="60" width="36" height="25" as="geometry" />
        </mxCell>
        <mxCell id="5z5hGNtQoGIRelViBkcS-88" style="edgeStyle=orthogonalEdgeStyle;shape=connector;curved=0;rounded=1;orthogonalLoop=1;jettySize=auto;html=1;exitX=1;exitY=0.5;exitDx=0;exitDy=0;exitPerimeter=0;entryX=0.561;entryY=0.96;entryDx=0;entryDy=0;entryPerimeter=0;dashed=1;strokeColor=default;align=center;verticalAlign=middle;fontFamily=Helvetica;fontSize=11;fontColor=default;labelBackgroundColor=default;endArrow=classic;" edge="1" parent="1" source="5z5hGNtQoGIRelViBkcS-75" target="5z5hGNtQoGIRelViBkcS-46">
          <mxGeometry relative="1" as="geometry">
            <Array as="points">
              <mxPoint x="480" y="143" />
              <mxPoint x="480" y="480" />
              <mxPoint x="512" y="480" />
            </Array>
            <mxPoint x="648" y="704.5" as="sourcePoint" />
          </mxGeometry>
        </mxCell>
        <mxCell id="5z5hGNtQoGIRelViBkcS-95" style="edgeStyle=orthogonalEdgeStyle;shape=connector;curved=0;rounded=1;orthogonalLoop=1;jettySize=auto;html=1;exitX=1;exitY=0.5;exitDx=0;exitDy=0;exitPerimeter=0;entryX=0.516;entryY=0.96;entryDx=0;entryDy=0;entryPerimeter=0;dashed=1;strokeColor=default;align=center;verticalAlign=middle;fontFamily=Helvetica;fontSize=11;fontColor=default;labelBackgroundColor=default;endArrow=classic;" edge="1" parent="1" source="5z5hGNtQoGIRelViBkcS-75" target="5z5hGNtQoGIRelViBkcS-30">
          <mxGeometry relative="1" as="geometry">
            <Array as="points">
              <mxPoint x="480" y="143" />
              <mxPoint x="480" y="480" />
              <mxPoint x="1071" y="480" />
            </Array>
            <mxPoint x="918" y="704.5" as="sourcePoint" />
          </mxGeometry>
        </mxCell>
        <mxCell id="5z5hGNtQoGIRelViBkcS-102" value="@" style="rounded=1;sketch=0;container=1;recursiveResize=0;verticalAlign=top;arcSize=6;fontStyle=0;autosize=0;points=[];absoluteArcSize=1;shadow=0;strokeColor=#9673a6;fillColor=#e1d5e7;fontFamily=Helvetica;fontSize=11;dashed=1;opacity=30;align=right;labelBackgroundColor=none;" vertex="1" parent="1">
          <mxGeometry x="600" y="370" width="40" height="62.5" as="geometry">
            <mxRectangle x="-98" y="-1230" width="99" height="26" as="alternateBounds" />
          </mxGeometry>
        </mxCell>
        <mxCell id="5z5hGNtQoGIRelViBkcS-103" value="" style="rounded=1;whiteSpace=wrap;html=1;sketch=0;points=[[0,0.5,0,0,0],[1,0.5,0,0,0]];arcSize=50;fontFamily=Helvetica;fontSize=11;fontColor=default;dashed=1;textOpacity=50;opacity=30;fontStyle=0;labelBackgroundColor=none;" vertex="1" parent="5z5hGNtQoGIRelViBkcS-102">
          <mxGeometry x="10.75" y="13" width="39.25" height="25" as="geometry" />
        </mxCell>
        <mxCell id="5z5hGNtQoGIRelViBkcS-104" value="reset" style="rounded=1;whiteSpace=wrap;html=1;sketch=0;points=[[0,0.5,0,0,0],[1,0.5,0,0,0]];arcSize=50;fontFamily=Helvetica;fontSize=11;fontColor=default;dashed=1;textOpacity=50;opacity=30;fontStyle=0;labelBackgroundColor=none;" vertex="1" parent="5z5hGNtQoGIRelViBkcS-102">
          <mxGeometry y="50" width="39.25" height="25" as="geometry" />
        </mxCell>
        <mxCell id="5z5hGNtQoGIRelViBkcS-105" style="edgeStyle=orthogonalEdgeStyle;rounded=0;orthogonalLoop=1;jettySize=auto;html=1;entryX=1;entryY=0.5;entryDx=0;entryDy=0;entryPerimeter=0;" edge="1" parent="1" source="5z5hGNtQoGIRelViBkcS-101" target="5z5hGNtQoGIRelViBkcS-103">
          <mxGeometry relative="1" as="geometry" />
        </mxCell>
        <mxCell id="5z5hGNtQoGIRelViBkcS-106" style="edgeStyle=orthogonalEdgeStyle;rounded=0;orthogonalLoop=1;jettySize=auto;html=1;exitX=1;exitY=0.5;exitDx=0;exitDy=0;exitPerimeter=0;entryX=0.51;entryY=1;entryDx=0;entryDy=0;entryPerimeter=0;" edge="1" parent="1" source="5z5hGNtQoGIRelViBkcS-75" target="5z5hGNtQoGIRelViBkcS-104">
          <mxGeometry relative="1" as="geometry">
            <Array as="points">
              <mxPoint x="480" y="143" />
              <mxPoint x="480" y="480" />
              <mxPoint x="620" y="480" />
            </Array>
          </mxGeometry>
        </mxCell>
      </root>
    </mxGraphModel>
  </diagram>
</mxfile>
